<svg width="176" height="60" viewBox="0 0 176 60" fill="none" xmlns="http://www.w3.org/2000/svg">
<path fill-rule="evenodd" clip-rule="evenodd" d="M119 40C113.477 40 109 44.4772 109 50C109 55.5228 113.477 60 119 60H166C171.523 60 176 55.5228 176 50C176 44.4772 171.523 40 166 40H119ZM123.198 47.434V55H124.979V47.434H127.891V45.861H120.286V47.434H123.198ZM128.447 54.701C128.907 54.987 129.422 55.13 129.994 55.13C130.445 55.13 130.848 55.039 131.203 54.857C131.439 54.7302 131.643 54.5748 131.814 54.3906V55H133.504V48.721H131.814V49.3246C131.643 49.1385 131.439 48.985 131.203 48.864C130.848 48.682 130.445 48.591 129.994 48.591C129.422 48.591 128.907 48.734 128.447 49.02C127.988 49.306 127.628 49.696 127.368 50.19C127.108 50.684 126.978 51.243 126.978 51.867C126.978 52.4823 127.108 53.037 127.368 53.531C127.628 54.025 127.988 54.415 128.447 54.701ZM131.463 53.089C131.169 53.401 130.783 53.557 130.306 53.557C129.994 53.557 129.717 53.4877 129.474 53.349C129.24 53.2017 129.054 53.0023 128.915 52.751C128.785 52.491 128.72 52.192 128.72 51.854C128.72 51.5247 128.785 51.2343 128.915 50.983C129.054 50.723 129.24 50.5237 129.474 50.385C129.717 50.2377 129.994 50.164 130.306 50.164C130.627 50.164 130.904 50.2377 131.138 50.385C131.381 50.5237 131.567 50.723 131.697 50.983C131.836 51.2343 131.905 51.5247 131.905 51.854C131.905 52.3567 131.758 52.7683 131.463 53.089ZM136.09 54.701C136.549 54.987 137.065 55.13 137.637 55.13C138.088 55.13 138.491 55.039 138.846 54.857C139.082 54.7302 139.286 54.5748 139.457 54.3906V55H141.147V48.721H139.457V49.3246C139.286 49.1385 139.082 48.985 138.846 48.864C138.491 48.682 138.088 48.591 137.637 48.591C137.065 48.591 136.549 48.734 136.09 49.02C135.631 49.306 135.271 49.696 135.011 50.19C134.751 50.684 134.621 51.243 134.621 51.867C134.621 52.4823 134.751 53.037 135.011 53.531C135.271 54.025 135.631 54.415 136.09 54.701ZM139.106 53.089C138.811 53.401 138.426 53.557 137.949 53.557C137.637 53.557 137.36 53.4877 137.117 53.349C136.883 53.2017 136.697 53.0023 136.558 52.751C136.428 52.491 136.363 52.192 136.363 51.854C136.363 51.5247 136.428 51.2343 136.558 50.983C136.697 50.723 136.883 50.5237 137.117 50.385C137.36 50.2377 137.637 50.164 137.949 50.164C138.27 50.164 138.547 50.2377 138.781 50.385C139.024 50.5237 139.21 50.723 139.34 50.983C139.479 51.2343 139.548 51.5247 139.548 51.854C139.548 52.3567 139.401 52.7683 139.106 53.089ZM143.758 55C144.105 55.0953 144.456 55.143 144.811 55.143C145.574 55.143 146.176 54.9653 146.618 54.61C147.06 54.246 147.281 53.7563 147.281 53.141C147.281 52.7597 147.203 52.4477 147.047 52.205C146.9 51.9623 146.705 51.7673 146.462 51.62C146.228 51.4727 145.977 51.36 145.708 51.282C145.448 51.1953 145.197 51.1217 144.954 51.061C144.712 50.9917 144.512 50.9137 144.356 50.827C144.209 50.7403 144.135 50.619 144.135 50.463C144.135 50.3243 144.2 50.216 144.33 50.138C144.469 50.06 144.664 50.021 144.915 50.021C145.193 50.021 145.448 50.073 145.682 50.177C145.925 50.281 146.142 50.45 146.332 50.684L147.359 49.657C147.082 49.293 146.731 49.02 146.306 48.838C145.89 48.656 145.422 48.565 144.902 48.565C144.408 48.565 143.979 48.6473 143.615 48.812C143.251 48.9767 142.97 49.2063 142.77 49.501C142.58 49.7957 142.484 50.1423 142.484 50.541C142.484 50.9223 142.558 51.2343 142.705 51.477C142.861 51.711 143.061 51.8973 143.303 52.036C143.546 52.166 143.797 52.2743 144.057 52.361C144.326 52.439 144.582 52.5127 144.824 52.582C145.067 52.6427 145.262 52.7207 145.409 52.816C145.565 52.9113 145.643 53.0457 145.643 53.219C145.643 53.375 145.57 53.492 145.422 53.57C145.284 53.648 145.076 53.687 144.798 53.687C144.452 53.687 144.135 53.6263 143.849 53.505C143.563 53.3837 143.312 53.2017 143.095 52.959L142.081 53.986C142.289 54.2287 142.536 54.4367 142.822 54.61C143.108 54.7747 143.42 54.9047 143.758 55ZM150.133 51.9361L152.434 55H154.514L151.919 51.7065L154.384 48.721H152.421L150.133 51.5995V45.601H148.43V55H150.133V51.9361ZM155.298 45.601V55H157.001V45.601H155.298ZM161.695 55.039L160.551 57.626H158.744L160.24 54.46L157.86 48.721H159.706L161.142 52.7067L162.631 48.721H164.49L161.695 55.039Z" fill="black"/>
<path d="M45.56 28V23.744H50.296C51.192 23.744 51.896 23.4987 52.408 23.008C52.9413 22.496 53.208 21.8347 53.208 21.024C53.208 20.4907 53.0907 20.0213 52.856 19.616C52.6213 19.1893 52.28 18.8693 51.832 18.656C51.4053 18.4213 50.8933 18.304 50.296 18.304H45.56V14.176H49.944C50.6907 14.176 51.2987 13.9947 51.768 13.632C52.2587 13.248 52.504 12.6613 52.504 11.872C52.504 11.0827 52.2587 10.5067 51.768 10.144C51.2987 9.76 50.6907 9.568 49.944 9.568H45.56V5.312H51.32C52.728 5.312 53.944 5.57867 54.968 6.112C56.0133 6.64533 56.8133 7.36 57.368 8.256C57.9227 9.152 58.2 10.1653 58.2 11.296C58.2 12.8107 57.6773 14.0693 56.632 15.072C55.608 16.0533 54.1147 16.6613 52.152 16.896V14.976C54.328 15.232 55.992 15.936 57.144 17.088C58.296 18.2187 58.872 19.648 58.872 21.376C58.872 22.656 58.552 23.7973 57.912 24.8C57.272 25.7813 56.3653 26.56 55.192 27.136C54.04 27.712 52.6747 28 51.096 28H45.56ZM41.016 28V5.312H46.648V28H41.016ZM69.1565 28.352C67.4712 28.352 65.9672 28 64.6445 27.296C63.3432 26.5707 62.3085 25.5893 61.5405 24.352C60.7725 23.0933 60.3885 21.6853 60.3885 20.128C60.3885 18.5707 60.7618 17.184 61.5085 15.968C62.2765 14.7307 63.3218 13.76 64.6445 13.056C65.9672 12.3307 67.4605 11.968 69.1245 11.968C70.7885 11.968 72.2712 12.3307 73.5725 13.056C74.8952 13.76 75.9405 14.7307 76.7085 15.968C77.4765 17.184 77.8605 18.5707 77.8605 20.128C77.8605 21.6853 77.4765 23.0933 76.7085 24.352C75.9618 25.5893 74.9272 26.5707 73.6045 27.296C72.3032 28 70.8205 28.352 69.1565 28.352ZM69.1245 23.392C69.7432 23.392 70.2765 23.264 70.7245 23.008C71.1938 22.7307 71.5565 22.3467 71.8125 21.856C72.0685 21.3653 72.1965 20.8 72.1965 20.16C72.1965 19.52 72.0578 18.9653 71.7805 18.496C71.5245 18.0053 71.1725 17.632 70.7245 17.376C70.2765 17.0987 69.7432 16.96 69.1245 16.96C68.5272 16.96 67.9938 17.0987 67.5245 17.376C67.0552 17.6533 66.6925 18.0373 66.4365 18.528C66.1805 18.9973 66.0525 19.552 66.0525 20.192C66.0525 20.8107 66.1805 21.3653 66.4365 21.856C66.6925 22.3467 67.0552 22.7307 67.5245 23.008C67.9938 23.264 68.5272 23.392 69.1245 23.392ZM87.7815 28.352C86.0962 28.352 84.5922 28 83.2695 27.296C81.9682 26.5707 80.9335 25.5893 80.1655 24.352C79.3975 23.0933 79.0135 21.6853 79.0135 20.128C79.0135 18.5707 79.3868 17.184 80.1335 15.968C80.9015 14.7307 81.9468 13.76 83.2695 13.056C84.5922 12.3307 86.0855 11.968 87.7495 11.968C89.4135 11.968 90.8962 12.3307 92.1975 13.056C93.5202 13.76 94.5655 14.7307 95.3335 15.968C96.1015 17.184 96.4855 18.5707 96.4855 20.128C96.4855 21.6853 96.1015 23.0933 95.3335 24.352C94.5868 25.5893 93.5522 26.5707 92.2295 27.296C90.9282 28 89.4455 28.352 87.7815 28.352ZM87.7495 23.392C88.3682 23.392 88.9015 23.264 89.3495 23.008C89.8188 22.7307 90.1815 22.3467 90.4375 21.856C90.6935 21.3653 90.8215 20.8 90.8215 20.16C90.8215 19.52 90.6828 18.9653 90.4055 18.496C90.1495 18.0053 89.7975 17.632 89.3495 17.376C88.9015 17.0987 88.3682 16.96 87.7495 16.96C87.1522 16.96 86.6188 17.0987 86.1495 17.376C85.6802 17.6533 85.3175 18.0373 85.0615 18.528C84.8055 18.9973 84.6775 19.552 84.6775 20.192C84.6775 20.8107 84.8055 21.3653 85.0615 21.856C85.3175 22.3467 85.6802 22.7307 86.1495 23.008C86.6188 23.264 87.1522 23.392 87.7495 23.392ZM108.743 28L103.815 19.808L108.711 12.352H114.823L108.743 20.768L108.903 18.72L115.142 28H108.743ZM98.6945 28V4.672H104.263V28H98.6945ZM116.131 28V12.352H121.731V28H116.131ZM118.915 10.528C118.083 10.528 117.39 10.2507 116.835 9.696C116.281 9.12 116.003 8.40533 116.003 7.552C116.003 6.72 116.281 6.016 116.835 5.44C117.39 4.864 118.083 4.576 118.915 4.576C119.79 4.576 120.494 4.864 121.027 5.44C121.582 6.016 121.859 6.72 121.859 7.552C121.859 8.40533 121.582 9.12 121.027 9.696C120.494 10.2507 119.79 10.528 118.915 10.528ZM135.12 28V19.168C135.12 18.4427 134.906 17.8773 134.48 17.472C134.053 17.0453 133.509 16.832 132.848 16.832C132.4 16.832 131.994 16.928 131.632 17.12C131.29 17.312 131.024 17.5787 130.832 17.92C130.64 18.2613 130.544 18.6773 130.544 19.168L128.368 18.144C128.368 16.8853 128.645 15.808 129.2 14.912C129.754 13.9947 130.512 13.2907 131.472 12.8C132.453 12.288 133.562 12.032 134.8 12.032C135.93 12.032 136.933 12.2987 137.808 12.832C138.704 13.344 139.408 14.0373 139.92 14.912C140.432 15.7867 140.688 16.7787 140.688 17.888V28H135.12ZM124.976 28V12.352H130.544V28H124.976ZM150.288 35.104C148.56 35.104 147.024 34.8053 145.68 34.208C144.357 33.632 143.323 32.8107 142.576 31.744L145.936 28.416C146.469 28.992 147.056 29.44 147.696 29.76C148.336 30.1013 149.115 30.272 150.032 30.272C151.141 30.272 152.016 29.9947 152.656 29.44C153.317 28.9067 153.648 28.128 153.648 27.104V23.04L154.544 19.648L153.744 16.288V12.352H159.216V26.912C159.216 28.576 158.821 30.016 158.032 31.232C157.264 32.4693 156.208 33.4187 154.864 34.08C153.52 34.7627 151.995 35.104 150.288 35.104ZM150.032 27.424C148.581 27.424 147.291 27.0933 146.16 26.432C145.051 25.7493 144.176 24.8213 143.536 23.648C142.896 22.4747 142.576 21.1627 142.576 19.712C142.576 18.2613 142.896 16.96 143.536 15.808C144.176 14.656 145.051 13.7387 146.16 13.056C147.291 12.3733 148.581 12.032 150.032 12.032C151.013 12.032 151.909 12.2133 152.72 12.576C153.552 12.9173 154.224 13.408 154.736 14.048C155.248 14.6667 155.568 15.392 155.696 16.224V23.232C155.568 24.064 155.237 24.8 154.704 25.44C154.192 26.0587 153.531 26.5493 152.72 26.912C151.909 27.2533 151.013 27.424 150.032 27.424ZM151.056 22.592C151.653 22.592 152.165 22.464 152.592 22.208C153.04 21.9307 153.381 21.5787 153.616 21.152C153.851 20.704 153.968 20.224 153.968 19.712C153.968 19.1787 153.851 18.6987 153.616 18.272C153.381 17.8453 153.051 17.504 152.624 17.248C152.197 16.9707 151.685 16.832 151.088 16.832C150.512 16.832 150 16.9707 149.552 17.248C149.125 17.504 148.795 17.856 148.56 18.304C148.325 18.7307 148.208 19.2 148.208 19.712C148.208 20.2027 148.325 20.672 148.56 21.12C148.795 21.5467 149.125 21.8987 149.552 22.176C149.979 22.4533 150.48 22.592 151.056 22.592ZM168.397 28.448C167.437 28.448 166.487 28.32 165.549 28.064C164.631 27.808 163.767 27.4667 162.957 27.04C162.167 26.592 161.495 26.08 160.941 25.504L163.981 22.4C164.493 22.9333 165.101 23.3493 165.805 23.648C166.53 23.9467 167.298 24.096 168.109 24.096C168.578 24.096 168.93 24.032 169.165 23.904C169.421 23.776 169.549 23.5947 169.549 23.36C169.549 23.0187 169.367 22.7627 169.005 22.592C168.663 22.4 168.205 22.24 167.629 22.112C167.074 21.9627 166.487 21.792 165.869 21.6C165.25 21.3867 164.653 21.1093 164.077 20.768C163.501 20.4267 163.031 19.9467 162.669 19.328C162.327 18.7093 162.157 17.92 162.157 16.96C162.157 15.9573 162.423 15.0827 162.957 14.336C163.511 13.568 164.279 12.9707 165.261 12.544C166.242 12.096 167.394 11.872 168.717 11.872C170.061 11.872 171.341 12.1067 172.557 12.576C173.773 13.024 174.754 13.7067 175.501 14.624L172.429 17.728C171.917 17.152 171.351 16.7573 170.733 16.544C170.114 16.3093 169.549 16.192 169.036 16.192C168.546 16.192 168.194 16.2667 167.981 16.416C167.767 16.544 167.661 16.7253 167.661 16.96C167.661 17.2373 167.831 17.4613 168.173 17.632C168.535 17.8027 168.994 17.9627 169.549 18.112C170.125 18.24 170.711 18.4107 171.309 18.624C171.927 18.8373 172.514 19.136 173.069 19.52C173.645 19.8827 174.103 20.3733 174.445 20.992C174.807 21.6107 174.989 22.4107 174.989 23.392C174.989 24.9493 174.391 26.1867 173.197 27.104C172.002 28 170.402 28.448 168.397 28.448Z" fill="black"/>
<path fill-rule="evenodd" clip-rule="evenodd" d="M16.5 0C7.3873 0 0 7.3873 0 16.5C0 25.6127 7.3873 33 16.5 33C25.6127 33 33 25.6127 33 16.5C33 7.3873 25.6127 0 16.5 0ZM12.9937 11.1375C12.6555 11.1375 12.375 10.857 12.375 10.5187V9.92895C12.5711 9.9096 12.7773 9.89995 12.9937 9.89995H13.6125V10.5187C13.6125 10.857 13.332 11.1375 12.9937 11.1375ZM13.6125 8.66245V9.89995H18.975V10.5187C18.975 10.857 19.2555 11.1375 19.5938 11.1375C19.932 11.1375 20.2125 10.857 20.2125 10.5187V9.92895C22.1137 10.1166 23.0603 11.2161 23.0988 13.2741H9.48872C9.52719 11.2161 10.4738 10.1166 12.375 9.92895V8.68822C12.5748 8.67109 12.7811 8.66245 12.9937 8.66245H13.6125ZM18.975 8.66245V9.89995H19.5938C19.8102 9.89995 20.0164 9.9096 20.2125 9.92895V8.68822C22.8411 8.91356 24.3375 10.6076 24.3375 13.4062V20.4187C24.3375 23.43 22.605 25.1625 19.5938 25.1625H12.9937C9.9825 25.1625 8.25 23.43 8.25 20.4187V13.4062C8.25 10.6076 9.74641 8.91356 12.375 8.68822V8.0437C12.375 7.70545 12.6555 7.42495 12.9937 7.42495C13.332 7.42495 13.6125 7.70545 13.6125 8.0437V8.66245H18.975ZM18.975 8.66245V8.0437C18.975 7.70545 19.2555 7.42495 19.5938 7.42495C19.932 7.42495 20.2125 7.70545 20.2125 8.0437V8.68822C20.0127 8.67109 19.8064 8.66245 19.5938 8.66245H18.975ZM9.4875 14.5116V13.4062C9.4875 13.3617 9.48791 13.3177 9.48872 13.2741H9.28125C8.943 13.2741 8.6625 13.5546 8.6625 13.8928C8.6625 14.2311 8.943 14.5116 9.28125 14.5116H9.4875ZM23.1 14.5116V20.4187C23.1 22.7782 21.9532 23.925 19.5938 23.925H12.9937C10.6342 23.925 9.4875 22.7782 9.4875 20.4187V14.5116H23.1ZM23.1 14.5116V13.4062C23.1 13.3617 23.0996 13.3177 23.0988 13.2741H23.3062C23.6445 13.2741 23.925 13.5546 23.925 13.8928C23.925 14.2311 23.6445 14.5116 23.3062 14.5116H23.1ZM13.0927 18.2903C13.1917 18.3315 13.299 18.3563 13.4062 18.3563C13.6208 18.3563 13.8352 18.2655 13.992 18.117C14.003 18.1032 14.0149 18.0895 14.0268 18.0757C14.0507 18.0483 14.0745 18.0208 14.091 17.9933C14.124 17.9438 14.1487 17.8943 14.1652 17.8448C14.19 17.7953 14.2065 17.7458 14.2147 17.6963C14.223 17.6385 14.2312 17.5808 14.2312 17.5313C14.2312 17.3168 14.1405 17.1023 13.992 16.9455C13.761 16.7145 13.3897 16.6485 13.0927 16.7722C12.9855 16.8135 12.903 16.8713 12.8205 16.9455C12.7463 17.028 12.6885 17.1188 12.6473 17.2178C12.606 17.3168 12.5813 17.424 12.5813 17.5313C12.5813 17.754 12.672 17.9602 12.8205 18.117C12.903 18.1912 12.9855 18.249 13.0927 18.2903ZM16.2938 18.3561C16.1865 18.3561 16.0792 18.3314 15.9802 18.2901C15.873 18.2489 15.7905 18.1911 15.708 18.1168C15.5595 17.9601 15.4688 17.7538 15.4688 17.5311C15.4688 17.4238 15.4935 17.3166 15.5348 17.2176C15.576 17.1186 15.6338 17.0279 15.708 16.9454C15.7905 16.8711 15.873 16.8133 15.9802 16.7721C16.2772 16.6401 16.6485 16.7144 16.8795 16.9454C17.028 17.1021 17.1187 17.3166 17.1187 17.5311C17.1187 17.5806 17.1105 17.6384 17.1022 17.6961C17.094 17.7456 17.0775 17.7951 17.0527 17.8446C17.0362 17.8941 17.0115 17.9436 16.9785 17.9931C16.962 18.0206 16.9382 18.0481 16.9143 18.0756C16.9024 18.0893 16.8905 18.1031 16.8795 18.1168C16.7227 18.2653 16.5082 18.3561 16.2938 18.3561ZM18.8677 18.2901C18.9667 18.3314 19.074 18.3561 19.1812 18.3561C19.3958 18.3561 19.6102 18.2653 19.767 18.1168C19.778 18.1031 19.7899 18.0894 19.8018 18.0757L19.8018 18.0756C19.8257 18.0481 19.8495 18.0206 19.866 17.9931C19.899 17.9436 19.9237 17.8941 19.9402 17.8446C19.965 17.7951 19.9815 17.7456 19.9897 17.6961C19.998 17.6384 20.0063 17.5806 20.0063 17.5311C20.0063 17.3166 19.9155 17.1021 19.767 16.9454C19.536 16.7144 19.173 16.6401 18.8677 16.7721C18.7605 16.8133 18.678 16.8711 18.5955 16.9454C18.447 17.1021 18.3563 17.3166 18.3563 17.5311C18.3563 17.5806 18.3645 17.6384 18.3727 17.6961C18.381 17.7456 18.3975 17.7951 18.4223 17.8446C18.4388 17.8941 18.4635 17.9436 18.4965 17.9931L18.5955 18.1168C18.678 18.1911 18.7605 18.2489 18.8677 18.2901ZM13.4062 21.2437C13.299 21.2437 13.1917 21.2189 13.0927 21.1777C12.9937 21.1364 12.903 21.0786 12.8205 21.0044C12.672 20.8476 12.5813 20.6332 12.5813 20.4187C12.5813 20.3114 12.606 20.2041 12.6473 20.1052C12.6885 19.9979 12.7463 19.9072 12.8205 19.8329C13.1258 19.5277 13.6867 19.5277 13.992 19.8329C14.1405 19.9897 14.2312 20.2042 14.2312 20.4187C14.2312 20.6332 14.1405 20.8476 13.992 21.0044C13.8352 21.1529 13.6208 21.2437 13.4062 21.2437ZM15.708 21.0044C15.8648 21.1529 16.0793 21.2437 16.2938 21.2437C16.5082 21.2437 16.7227 21.1529 16.8795 21.0044C17.028 20.8476 17.1187 20.6332 17.1187 20.4187C17.1187 20.3114 17.094 20.2041 17.0527 20.1052C17.0115 19.9979 16.9537 19.9072 16.8795 19.8329C16.5742 19.5277 16.0133 19.5277 15.708 19.8329C15.6338 19.9072 15.576 19.9979 15.5348 20.1052C15.4935 20.2041 15.4688 20.3114 15.4688 20.4187C15.4688 20.6332 15.5595 20.8476 15.708 21.0044ZM19.1812 21.2436C18.9667 21.2436 18.7523 21.1529 18.5955 21.0044C18.5212 20.9301 18.4635 20.8394 18.4223 20.7321C18.381 20.6331 18.3563 20.5259 18.3563 20.4186C18.3563 20.3114 18.381 20.2041 18.4223 20.1051C18.4635 19.9979 18.5212 19.9071 18.5955 19.8329C18.7852 19.6431 19.074 19.5524 19.338 19.6101C19.3957 19.6184 19.4453 19.6349 19.4948 19.6596C19.5443 19.6761 19.5938 19.7009 19.6433 19.7339C19.6708 19.7504 19.6983 19.7742 19.7258 19.7981C19.7395 19.81 19.7533 19.8219 19.767 19.8329C19.9155 19.9896 20.0063 20.2041 20.0063 20.4186C20.0063 20.6331 19.9155 20.8476 19.767 21.0044C19.6102 21.1529 19.3958 21.2436 19.1812 21.2436Z" fill="black"/>
</svg>
